<svg width="469" height="437" viewBox="0 0 469 437" fill="none" xmlns="http://www.w3.org/2000/svg">
<path fill-rule="evenodd" clip-rule="evenodd" d="M229.233 22.6665C178.511 6.78548 126.357 -19.7027 72.9619 28.6784C19.567 77.0595 -14.0019 119.441 7.67596 174.278C29.3538 229.114 117.841 194.958 143.551 243.969C169.261 292.98 112.77 337.461 137.125 381.08C161.479 424.7 180.206 452.656 258.475 424.921C336.743 397.187 329.526 326.618 389.046 285.293C448.565 243.969 512.961 182.105 424.587 71.7168C336.214 -38.6714 279.955 38.5474 229.233 22.6665Z" stroke="#9E96C6"/>
<path fill-rule="evenodd" clip-rule="evenodd" d="M235.714 48.5822C194.442 35.6949 152.003 14.1999 108.556 53.4609C65.1081 92.7219 37.7929 127.114 55.4323 171.614C73.0716 216.113 145.074 188.396 165.995 228.168C186.915 267.94 140.948 304.036 160.765 339.433C180.583 374.83 195.821 397.516 259.508 375.01C323.195 352.503 317.323 295.237 365.754 261.702C414.185 228.168 466.585 177.966 394.675 88.3863C322.765 -1.19312 276.987 61.4695 235.714 48.5822Z" stroke="#9E96C6"/>
<path fill-rule="evenodd" clip-rule="evenodd" d="M247.526 65.3447C214.074 54.8304 179.676 37.2934 144.461 69.325C109.245 101.357 87.1058 129.416 101.403 165.722C115.7 202.027 174.06 179.414 191.017 211.862C207.973 244.311 170.716 273.76 186.778 302.639C202.841 331.518 215.192 350.027 266.812 331.665C318.432 313.303 313.673 266.581 352.927 239.222C392.182 211.862 434.653 170.904 376.368 97.8194C318.083 24.7348 280.979 75.859 247.526 65.3447Z" stroke="#9E96C6"/>
<path fill-rule="evenodd" clip-rule="evenodd" d="M259.692 85.5056C232.647 77.0723 204.839 63.0062 176.369 88.6982C147.9 114.39 130.001 136.896 141.56 166.016C153.118 195.136 200.298 176.999 214.007 203.025C227.715 229.051 197.595 252.672 210.58 275.836C223.566 298.999 233.551 313.845 275.283 299.117C317.015 284.389 313.167 246.914 344.902 224.97C376.637 203.025 410.973 170.173 363.853 111.553C316.733 52.9331 286.736 93.939 259.692 85.5056Z" stroke="#9E96C6"/>
<path fill-rule="evenodd" clip-rule="evenodd" d="M262.21 99.4137C240.162 92.5137 217.491 81.005 194.281 102.026C171.071 123.047 156.479 141.461 165.902 165.286C175.325 189.112 213.789 174.272 224.965 195.566C236.141 216.86 211.585 236.187 222.172 255.138C232.759 274.09 240.899 286.237 274.921 274.186C308.944 262.136 305.807 231.475 331.679 213.521C357.552 195.566 385.544 168.687 347.129 120.725C308.714 72.7635 284.259 106.314 262.21 99.4137Z" stroke="#9E96C6"/>
<path fill-rule="evenodd" clip-rule="evenodd" d="M269.639 108.621C251.718 103.035 233.291 93.7184 214.426 110.735C195.56 127.752 183.7 142.659 191.359 161.946C199.018 181.233 230.282 169.22 239.366 186.458C248.45 203.696 228.491 219.341 237.095 234.683C245.7 250.025 252.317 259.858 279.971 250.103C307.624 240.348 305.075 215.528 326.104 200.993C347.133 186.458 369.885 164.699 338.661 125.873C307.437 87.0466 287.56 114.206 269.639 108.621Z" stroke="#9E96C6"/>
</svg>
